<svg width="1343" height="373" viewBox="0 0 1343 373" fill="none" xmlns="http://www.w3.org/2000/svg">
<path d="M27.9583 236.472C47.8177 236.472 63.6719 235.441 75.5208 233.368C87.3802 231.3 98.7083 227.404 109.5 221.68V239.66H0V99.3679H106.5V117.368C96.375 112.04 85.4844 108.238 73.8333 105.972C62.1771 103.712 46.8854 102.576 27.9583 102.576V159.118H94.9167V162.326H27.9583V236.472Z" fill="#F37720"/>
<path d="M124.891 239.66V99.3679H152.849V166.326L193.828 132.347C200.214 126.894 205.542 121.597 209.807 116.472C214.068 111.337 217.13 105.634 218.995 99.3679H236.995L169.641 155.722C181.234 149.602 191.161 146.535 199.411 146.535C209.146 146.535 215.672 150.67 218.995 158.93L251.766 239.66H223.807L191.62 162.722C189.896 158.462 186.5 156.326 181.432 156.326C177.833 156.326 173.771 157.363 169.245 159.43C164.714 161.488 160.25 164.186 155.849 167.514L152.849 169.91V239.66H124.891Z" fill="#F37720"/>
<path d="M262.365 239.66L318.324 99.3679H346.282L402.24 239.66H389.261L388.865 235.472C387.792 226.144 386.589 217.946 385.261 210.889C383.928 203.821 381.725 196.425 378.657 188.701L374.469 178.118H314.928L290.344 239.66H262.365ZM344.699 103.368L316.115 174.91H373.261L344.699 103.368Z" fill="#F37720"/>
<path d="M417.82 239.66C419.815 232.066 421.185 224.701 421.924 217.576C422.659 210.456 423.029 202.16 423.029 192.701V99.3679H442.612L532.529 227.66V143.535C532.529 136.217 532.096 128.66 531.237 120.868C530.372 113.066 529.003 105.899 527.133 99.3679H540.924C537.466 111.759 535.737 126.483 535.737 143.535V239.66H512.341L426.029 116.368L426.216 192.701C426.216 201.759 426.549 210.019 427.216 217.472C427.878 224.93 429.284 232.331 431.424 239.66H417.82Z" fill="#F37720"/>
<path d="M599.274 102.576C588.618 102.576 579.993 103.712 573.399 105.972C566.8 108.238 559.639 112.04 551.92 117.368V99.3679H674.816V117.368C666.951 112.04 659.722 108.238 653.128 105.972C646.529 103.712 637.904 102.576 627.253 102.576V239.66H599.274V102.576Z" fill="#F37720"/>
<path d="M788.51 242.451C770.119 242.451 750.796 238.993 730.551 232.076L731.947 214.076C743.682 222.342 754.64 228.441 764.822 232.368C775.015 236.3 784.244 238.264 792.51 238.264C799.036 238.264 804.864 237.17 809.989 234.972C815.109 232.769 819.104 229.733 821.968 225.868C824.838 222.009 826.281 217.681 826.281 212.889C826.281 210.352 825.874 207.816 825.072 205.285C823.614 200.623 820.583 196.295 815.989 192.306C811.39 188.311 806.161 184.779 800.301 181.722C794.437 178.654 786.645 174.92 776.926 170.514C766.135 165.587 757.567 161.389 751.239 157.931C744.906 154.462 739.567 150.431 735.239 145.847C730.916 141.253 728.76 136.154 728.76 130.556C728.76 119.363 734.583 110.8 746.239 104.868C757.9 98.9409 772.661 95.9722 790.51 95.9722C807.02 95.9722 824.604 98.644 843.26 103.972L841.656 121.951C830.874 114.899 820.354 109.509 810.093 105.785C799.827 102.05 790.963 100.181 783.51 100.181C773.26 100.181 765.036 101.816 758.843 105.076C752.645 108.342 749.682 113.3 749.947 119.951C750.208 125.149 753.702 129.915 760.426 134.243C767.161 138.576 777.452 143.941 791.301 150.326C803.827 156.191 813.952 161.29 821.676 165.618C829.411 169.951 836.072 175.087 841.656 181.014C847.249 186.946 850.187 193.509 850.468 200.701C850.854 209.493 848.484 217.024 843.364 223.285C838.239 229.535 830.942 234.295 821.489 237.556C812.031 240.816 801.036 242.451 788.51 242.451Z" fill="#F37720"/>
<path d="M901.8 239.66H873.842V99.3679H901.8V239.66Z" fill="#F37720"/>
<path d="M925.58 239.66C927.575 232.066 928.945 224.702 929.684 217.577C930.419 210.457 930.788 202.16 930.788 192.702V99.3682H950.372L1040.29 227.66V143.535C1040.29 136.217 1039.86 128.66 1039 120.868C1038.13 113.066 1036.76 105.899 1034.89 99.3682H1048.68C1045.23 111.759 1043.5 126.483 1043.5 143.535V239.66H1020.1L933.788 116.368L933.976 192.702C933.976 201.759 934.309 210.019 934.976 217.472C935.637 224.931 937.044 232.332 939.184 239.66H925.58Z" fill="#F37720"/>
<path d="M1146.2 242.66C1130.62 242.66 1116.63 239.691 1104.24 233.764C1091.85 227.837 1082.06 219.175 1074.87 207.785C1067.67 196.399 1064.08 182.842 1064.08 167.118C1064.08 152.467 1067.73 139.816 1075.06 129.16C1082.38 118.498 1092.38 110.399 1105.03 104.868C1117.69 99.342 1131.87 96.5764 1147.6 96.5764C1164.25 96.5764 1180.77 99.5087 1197.16 105.368L1196.16 123.347C1186.56 115.628 1177.2 109.837 1168.08 105.972C1158.95 102.113 1150.32 100.181 1142.2 100.181C1132.34 100.181 1123.61 102.816 1116.01 108.076C1108.43 113.342 1102.54 121.003 1098.35 131.056C1094.15 141.113 1092.06 153.134 1092.06 167.118C1092.06 182.441 1094.62 195.53 1099.74 206.389C1104.86 217.254 1111.83 225.415 1120.62 230.868C1129.4 236.326 1139.27 239.056 1150.2 239.056C1157.39 239.056 1164.59 237.592 1171.78 234.66V166.326H1199.76V231.472C1181.23 238.931 1163.38 242.66 1146.2 242.66Z" fill="#F37720"/>
<path d="M1314.65 158.722V99.3679H1342.63V239.66H1314.65V161.93H1252.3V239.66H1224.34V99.3679H1252.3V158.722H1314.65Z" fill="#F37720"/>
<path d="M265.884 200.552C270.061 194.437 270.806 190.26 270.358 188.771C269.91 186.828 267.373 196.526 265.884 200.552ZM263.644 206.364C252.014 236.937 221.592 310.76 209.509 315.536C209.061 315.682 208.467 315.385 208.17 314.937C208.019 314.489 208.17 313.89 208.618 313.745C219.801 309.422 244.556 243.5 256.785 211.14C228.748 234.703 199.519 210.094 187.29 259.458C187.139 259.906 186.842 260.5 186.243 260.203C185.801 260.057 185.801 259.609 185.946 259.161C198.92 207.859 234.118 231.87 258.426 206.963C259.915 202.937 261.707 198.312 262.452 196.078C262.748 195.182 269.759 181.015 271.702 187.724C272.144 189.515 271.998 196.078 266.035 203.682C265.285 204.578 264.54 205.474 263.644 206.364Z" fill="#FBFDFA"/>
<path d="M286.461 241.265C281.539 246.333 274.675 257.817 272.144 261.401C279.3 255.281 288.248 245.588 290.633 254.833C293.763 269.302 312.112 256.625 318.076 251.109C318.972 250.364 319.717 250.807 319.118 251.557C313.154 257.37 293.321 270.942 288.545 255.281C286.461 246.187 268.566 267.364 268.414 267.364C267.071 268.109 265.732 267.958 265.284 266.765C264.534 266.765 270.649 250.51 282.732 239.625C284.373 238.583 286.607 239.922 286.461 241.265Z" fill="#FBFDFA"/>
<path d="M330.748 249.614C325.681 256.328 317.78 266.166 315.691 265.87C311.514 264.828 322.248 242.307 329.113 246.932C329.707 247.677 330.306 248.271 330.9 249.469L330.748 249.614ZM398.457 183.849C397.863 181.76 396.222 180.567 393.837 180.265C389.165 179.896 384.436 181.088 379.78 183.396C380.144 184.067 380.509 184.745 380.811 185.442C385.097 182.958 389.389 181.651 393.535 182.057C395.327 182.208 396.368 183.099 396.67 184.442C397.264 186.682 396.071 190.557 392.493 196.078C382.051 212.036 349.243 236.937 336.717 246.036C342.285 232.229 359.863 199.833 378.066 187.177C377.905 186.729 377.795 186.26 377.623 185.812C377.478 185.489 377.311 185.182 377.155 184.87C377.144 184.849 377.15 184.828 377.139 184.812C356.618 196.88 337.847 229.719 331.498 247.828C321.655 231.87 303.608 266.765 315.394 267.661C317.78 267.958 324.488 260.354 329.707 253.942C325.827 265.125 326.28 277.651 334.926 280.635C345.514 284.213 369.082 256.922 375.342 249.614L374.597 249.021C369.082 255.583 344.769 281.682 335.67 278.547C327.618 275.416 331.498 257.224 335.972 248.125C346.561 240.521 382.801 214.271 393.983 197.12C397.863 191.005 399.207 186.682 398.457 183.849Z" fill="#FBFDFA"/>
<path d="M379.962 248.125C379.962 248.125 372.655 257.521 374.447 258.713C376.384 260.057 382.348 252.448 384.291 250.364C387.421 246.187 389.358 245.885 390.254 246.781C391.598 248.125 392.041 252.75 399.65 257.521C406.66 261.099 419.337 261.401 432.311 250.661C433.056 249.917 433.504 250.213 433.353 250.958C423.957 258.417 415.754 261.547 408.598 261.099C395.322 260.354 388.91 253.047 388.166 249.766C384.436 251.406 377.728 262.739 372.509 261.099C368.181 257.818 374.447 247.974 376.087 246.635C377.728 245.141 381.155 246.187 379.962 248.125Z" fill="#FBFDFA"/>
<path d="M429.473 259.458C423.807 259.161 416.499 261.099 412.77 265.573C406.51 273.031 413.369 281.531 421.27 275.713C426.046 272.286 428.729 264.38 429.473 259.458ZM439.765 247.526C435.885 247.526 433.354 258.115 433.354 258.115C446.177 258.417 448.416 256.625 459.895 250.51C461.088 250.213 461.541 250.807 460.494 251.557C449.01 258.266 446.177 259.609 433.203 259.307C432.161 266.469 427.984 275.266 421.572 278.401C411.432 283.469 404.718 272.88 411.281 264.974C415.307 259.906 423.661 258.115 429.624 258.115C430.671 253.495 431.265 245.292 435.437 242.906C436.932 242.161 439.171 241.713 441.552 242.906C443.64 244.844 441.854 247.38 439.765 247.526Z" fill="#FBFDFA"/>
<path d="M535.691 166.635C535.701 166.687 535.717 166.739 535.727 166.792C535.769 167.036 535.805 167.286 535.821 167.536C535.837 167.693 535.831 167.849 535.816 168C554.946 175.161 567.326 189.135 559.217 202.042C549.227 217.849 516.415 217.401 484.352 213.375C485.988 210.958 487.576 208.667 489.102 206.51C488.982 206.375 488.863 206.245 488.743 206.094C488.363 205.614 488.024 205.094 487.68 204.588C487.17 203.823 486.633 203.073 486.128 202.307C484.061 205.458 481.8 208.963 479.43 212.781C461.837 210.39 444.535 207.26 432.305 204.724C425.592 203.385 420.972 202.042 417.691 201.594C402.675 199.38 394.326 204.927 390.201 209.542C390.352 209.729 390.415 209.932 390.446 210.177C390.436 210.104 390.425 210.026 390.415 209.953C390.441 210.12 390.493 210.276 390.555 210.432C390.722 210.792 390.91 211.14 391.061 211.505C391.191 211.838 391.274 212.193 391.399 212.531C391.535 212.281 391.686 212.021 391.889 211.734C394.873 207.411 402.18 201.443 415.748 203.385C419.029 203.833 424.253 204.875 430.962 206.068C443.488 208.604 460.639 211.885 478.535 214.271C466.753 233.359 453.186 258.562 450.649 276.312C449.008 287.646 449.904 296.443 452.436 302.859C454.081 306.885 456.316 310.015 458.852 312.104C461.535 314.338 464.519 315.682 467.8 316.13C471.227 316.578 474.956 316.13 478.535 314.786C480.029 314.193 479.727 311.807 477.79 312.698C473.17 315.385 471.227 315.833 467.951 315.385C464.816 314.937 461.982 313.594 459.597 311.505C457.061 309.417 455.123 306.286 453.628 302.411C451.097 296.146 451.394 288.094 453.035 276.906C455.571 259.307 470.482 234.104 483.305 214.87C516.269 218.745 550.269 218.745 560.264 202.64C569.029 188.672 555.894 173.87 535.691 166.635Z" fill="#FBFDFA"/>
<path d="M532.531 165.724C532.531 165.672 532.551 165.635 532.562 165.588C506.557 157.568 470.765 161.953 453.781 195.031C453.484 196.224 455.572 197.12 456.317 195.328C456.765 194.437 456.765 192.797 457.213 191.901C473.973 162.25 507.838 158.943 532.494 166.849C532.489 166.474 532.531 166.099 532.531 165.724Z" fill="#FBFDFA"/>
<path d="M486.139 240.666C487.332 239.474 492.853 238.729 490.613 243.052C488.228 247.229 483.754 252 483.905 253.495C491.358 245.739 495.686 245.442 499.858 246.187C509.853 248.276 515.368 257.817 530.879 250.958C531.327 250.812 531.926 250.661 532.072 251.109C532.374 251.557 531.478 251.854 531.03 252.151C514.176 258.265 511.493 250.51 498.67 247.38C493.598 246.635 487.634 250.812 483.457 256.031C479.28 261.25 478.983 261.844 476.743 266.765C475.702 269.151 475.103 269.901 473.91 269.75C473.462 269.448 472.269 269.448 473.462 265.87C476.894 257.073 478.832 252.302 486.139 240.666Z" fill="#FBFDFA"/>
<path d="M538.931 233.51C539.827 233.51 540.572 234.255 540.42 235.302C540.275 236.193 539.379 237.088 538.483 237.088C537.441 237.088 536.842 236.193 536.842 235.302C536.993 234.255 537.889 233.51 538.931 233.51ZM531.92 245.437C532.368 244.396 534.16 243.651 535.952 244.547C537.29 244.995 537.29 246.781 536.993 247.229C536.842 247.38 524.764 262.89 533.118 263.635C541.467 264.38 556.681 253.64 560.108 250.51C560.556 250.213 561.155 249.917 561.452 250.364C561.749 250.661 561.452 251.109 561.155 251.406C558.019 254.239 538.483 266.917 531.025 266.167C519.394 265.125 531.92 245.437 531.92 245.437Z" fill="#FBFDFA"/>
<path d="M572.484 249.917C573.38 247.974 572.036 246.036 570.994 245.885C563.984 245.14 554.588 263.932 557.869 266.765C560.703 267.661 568.906 255.281 572.484 249.917ZM580.093 246.781C579.343 247.083 576.067 251.406 573.979 255.734C572.036 259.609 570.843 263.187 572.786 264.677C579.046 269.75 599.182 252.75 602.609 250.213L603.208 250.958C597.687 255.583 581.135 270.198 571.588 266.469C568.755 265.427 567.713 262.594 568.906 258.417C564.729 263.932 559.807 269.453 557.27 268.854C546.984 265.87 558.765 242.609 569.953 243.651C572.635 243.802 574.124 245.885 574.723 247.828C576.067 246.036 577.406 244.698 577.703 244.547C578.9 243.203 580.838 244.396 580.093 246.781Z" fill="#FBFDFA"/>
<path d="M670.02 184.594C669.572 182.359 667.931 181.161 665.395 181.015C644.218 179.224 614.093 219.193 601.265 249.614C597.39 257.818 588.291 279.89 595.301 290.031C597.39 293.609 602.16 292.568 606.634 290.182C612.15 287.047 619.16 280.338 626.77 273.182C634.822 265.573 643.322 257.37 653.312 250.661L652.421 249.318C642.426 256.177 633.629 264.38 625.577 271.989C618.119 279.146 611.108 285.708 605.89 288.693C602.312 290.63 599.624 290.927 598.134 288.39C593.812 280.489 601.265 261.547 606.041 251.109L606.931 250.51C607.233 249.765 607.53 249.166 607.681 248.719C610.431 246.771 614.843 243.594 620.062 239.661H617.707C614.009 242.463 610.754 244.854 608.275 246.635C608.426 246.187 608.572 245.739 608.874 245.291C609.317 244.396 609.468 243.948 609.619 243.948H609.468C617.968 224.562 643.473 180.568 665.244 182.802C666.884 182.953 667.931 183.698 668.374 185.041C668.973 187.276 667.78 191.156 664.051 196.823C657.374 207.083 641.207 221.172 627.218 232.286C627.223 232.328 627.244 232.364 627.244 232.401V234.161C641.483 223.052 658.468 208.568 665.541 197.719C669.572 191.75 670.765 187.276 670.02 184.594Z" fill="#FBFDFA"/>
<path d="M768.291 244.245C770.229 244.245 769.338 244.245 771.421 244.396C766.65 253.047 750.989 287.052 746.817 290.776C746.963 288.989 755.02 272.88 768.291 244.245ZM837.906 177.427C838.39 177.901 838.864 178.39 839.364 178.849C863.786 173.682 861.036 204.656 857.026 220.682C845.244 268.557 791.26 325.672 739.958 320.604C731.01 319.708 723.848 316.578 718.781 311.958C713.708 307.479 710.578 301.515 709.234 295.255C707.744 287.797 708.635 279.89 711.921 272.88C720.27 255.135 743.385 244.547 762.025 244.245C752.036 265.276 742.791 282.875 740.999 290.328C739.656 295.255 742.041 298.385 745.921 295.255C751.14 290.479 767.692 254.687 773.213 244.698C779.921 245.443 786.484 247.229 792.901 250.213C799.906 253.495 806.765 257.818 812.734 264.083C813.031 264.38 813.328 264.682 813.63 264.38C813.927 264.083 813.927 263.635 813.479 263.333C807.515 256.927 800.802 252 793.645 248.719C787.38 245.739 780.817 243.948 774.109 243.052C784.874 224.073 798.239 204.109 814.791 191.213C814.265 190.896 813.765 190.542 813.322 190.114C796.484 203.312 783.01 223.594 772.317 242.755C770.229 242.609 771.124 242.458 769.036 242.458C785.291 209.5 803.338 177.286 803.338 176.39C805.427 172.958 801.697 171.172 801.249 171.021C800.802 170.724 799.161 170.724 798.119 172.812C797.968 173.109 778.88 208.901 762.921 242.458C743.239 242.609 719.078 253.495 710.427 272.135C706.994 279.443 705.953 287.797 707.593 295.552C708.937 302.26 712.364 308.526 717.734 313.297C723.104 318.068 730.411 321.349 739.807 322.396C793.942 327.614 849.27 275.713 862.843 222.625C867.927 201.989 865.218 170.614 837.906 177.427Z" fill="#FBFDFA"/>
<path d="M872.826 251.557C875.81 251.255 879.54 250.661 880.732 247.677C881.029 247.229 881.029 246.781 880.878 246.635C878.045 245.588 873.722 249.469 872.826 251.557ZM883.118 248.87C881.18 253.344 874.915 254.088 872.081 254.39C869.248 275.713 912.795 254.984 918.612 250.661C919.956 249.916 920.404 250.958 919.206 251.703C911.305 257.073 888.935 267.364 876.706 265.276C872.081 264.531 868.055 261.844 867.607 256.776C866.862 247.229 878.196 239.474 882.821 244.995C883.566 246.036 883.862 247.38 883.118 248.87Z" fill="#FBFDFA"/>
<path d="M915.774 259.458C910.108 259.161 902.8 261.099 899.071 265.573C892.811 273.031 899.67 281.531 907.571 275.713C912.347 272.286 915.029 264.38 915.774 259.458ZM926.066 247.526C922.191 247.526 919.654 258.115 919.654 258.115C932.477 258.417 934.717 256.625 946.196 250.51C947.394 250.213 947.842 250.807 946.795 251.557C935.311 258.266 932.477 259.609 919.503 259.307C918.462 266.469 914.285 275.266 907.873 278.401C897.733 283.469 891.019 272.88 897.581 264.974C901.608 259.906 909.962 258.115 915.925 258.115C916.967 253.495 917.566 245.292 921.743 242.906C923.233 242.161 925.467 241.713 927.858 242.906C929.946 244.844 928.154 247.38 926.066 247.526Z" fill="#FBFDFA"/>
<path d="M954.545 233.51C955.441 233.51 956.185 234.255 956.04 235.302C955.889 236.193 954.993 237.088 954.102 237.088C953.055 237.088 952.462 236.193 952.462 235.302C952.607 234.255 953.503 233.51 954.545 233.51ZM947.54 245.437C947.982 244.396 949.774 243.651 951.566 244.547C952.909 244.995 952.909 246.781 952.607 247.229C952.462 247.38 940.378 262.89 948.732 263.635C957.081 264.38 972.295 253.64 975.727 250.51C976.175 250.213 976.769 249.917 977.066 250.364C977.363 250.661 977.066 251.109 976.769 251.406C973.639 254.239 954.102 266.917 946.644 266.167C935.014 265.125 947.54 245.437 947.54 245.437Z" fill="#FBFDFA"/>
<path d="M1002.72 244.547C1003.01 239.026 997.795 239.625 994.066 241.411C982.733 246.781 966.477 267.958 970.8 271.39C972.441 272.432 978.858 266.317 986.014 259.307C991.68 253.942 997.644 248.125 1002.72 244.547ZM1004.21 267.812C993.472 275.265 981.243 286.005 968.415 301.218C967.076 303.005 965.733 304.797 964.243 306.583C954.993 319.26 938.884 348.791 945.894 365.047C947.686 369.224 951.415 370.864 958.123 366.088C975.576 354.01 994.363 293.161 1004.21 267.812ZM1001.23 250.661C1001.67 249.317 1002.12 248.125 1002.41 246.932C997.795 250.51 992.279 255.729 987.358 260.5C979.602 268.109 972.592 275.12 969.759 273.328C960.957 265.724 978.113 242.458 991.826 237.385C996.899 235.599 1004.21 236.791 1004.5 243.354C1006.59 242.161 1008.53 241.411 1010.02 241.265C1013.9 240.817 1015.55 245.437 1014.95 249.468C1014.35 253.047 1013.31 257.073 1012.11 261.099C1023.74 254.239 1032.39 251.255 1035.97 250.062C1036.87 249.765 1037.32 249.614 1037.62 249.468L1038.21 250.51C1037.91 250.661 1037.32 250.958 1036.42 251.255C1032.69 252.448 1023.6 255.432 1011.52 262.89C1002.27 291.823 978.707 354.161 958.722 368.177C951.264 373.099 946.79 371.01 944.404 366.088C936.503 349.536 953.8 318.963 963.347 305.838C964.686 303.901 966.029 302.109 967.519 300.468C980.946 284.364 993.915 273.328 1004.95 265.724C1008.38 256.776 1011.36 246.932 1009.43 244.099C1008.23 243.354 1005.55 244.843 1004.5 245.588C1004.21 247.229 1003.76 249.166 1002.86 251.255" fill="#FBFDFA"/>
<path d="M1048.8 241.265C1043.87 246.333 1037.02 257.817 1034.48 261.401C1041.64 255.281 1050.59 245.588 1052.97 254.833C1056.1 269.302 1074.45 256.625 1080.42 251.109C1081.31 250.364 1082.05 250.807 1081.46 251.557C1075.49 257.37 1055.66 270.942 1050.89 255.281C1048.8 246.187 1030.9 267.364 1030.75 267.364C1029.41 268.109 1028.07 267.958 1027.62 266.765C1026.87 266.765 1032.99 250.51 1045.07 239.625C1046.71 238.583 1048.95 239.922 1048.8 241.265Z" fill="#FBFDFA"/>
<path d="M1083.84 251.557C1086.83 251.255 1090.55 250.661 1091.74 247.677C1092.05 247.229 1092.05 246.781 1091.89 246.635C1089.06 245.588 1084.74 249.469 1083.84 251.557ZM1094.13 248.87C1092.19 253.344 1085.93 254.088 1083.1 254.39C1080.26 275.713 1123.81 254.984 1129.63 250.661C1130.97 249.916 1131.42 250.958 1130.22 251.703C1122.32 257.073 1099.95 267.364 1087.72 265.276C1083.1 264.531 1079.07 261.844 1078.62 256.776C1077.87 247.229 1089.21 239.474 1093.84 244.995C1094.58 246.036 1094.88 247.38 1094.13 248.87Z" fill="#FBFDFA"/>
<path d="M1136.04 240.666C1137.23 239.474 1142.75 238.729 1140.51 243.052C1138.12 247.229 1133.65 252 1133.8 253.495C1141.25 245.739 1145.58 245.442 1149.75 246.187C1159.75 248.276 1165.26 257.817 1180.78 250.958C1181.22 250.812 1181.82 250.661 1181.97 251.109C1182.26 251.557 1181.37 251.854 1180.93 252.151C1164.07 258.265 1161.38 250.51 1148.56 247.38C1143.49 246.635 1137.53 250.812 1133.35 256.031C1129.18 261.25 1128.88 261.844 1126.64 266.765C1125.6 269.151 1125 269.901 1123.81 269.75C1123.36 269.448 1122.17 269.448 1123.36 265.87C1126.79 257.073 1128.73 252.302 1136.04 240.666Z" fill="#FBFDFA"/>
<path d="M487.328 6.14583C488.703 9.6875 494.036 23.375 498.641 35.2708C494.203 33.2917 489.87 33.875 485.432 35.5833C480.349 37.6458 475.099 41.6667 471.078 47.5625C476.411 33.2917 482.557 18.2917 487.328 6.14583ZM487.245 2.375C481.578 17.0625 473.953 36.8958 466.974 54.5417C466.245 56.4167 464.682 58.6458 461.078 58.6458V58.9583H471.078V58.6458C467.474 58.6458 467.974 56.0833 468.536 54.5417C472.391 45.2708 479.37 39.2083 485.849 36.6667C492.411 34.2083 499.203 37.6458 500.766 40.8333C503.141 46.8333 504.62 50.6042 506.516 55.5208C507.661 58.3958 505.349 58.6458 504.37 58.6458V58.9583H518.807V58.6458C516.182 58.6458 514.453 57.3333 513.807 55.5208L493.141 2.375H487.245Z" fill="#FBFDFA"/>
<path d="M546.595 19.6877C550.449 19.6877 554.637 21.0002 555.533 30.9168L562.345 27.8127C559.803 20.8335 552.678 19.021 546.595 19.021C540.033 19.021 535.533 22.2293 533.408 25.1043V19.021L524.053 21.0002V21.5627C525.199 21.5627 526.595 21.7293 526.595 23.4585V54.5418C526.595 56.1668 524.949 58.646 521.262 58.646V58.9585H538.658V58.646C535.116 58.646 533.408 56.1668 533.408 54.5418V34.521C533.491 28.6252 539.47 19.6877 546.595 19.6877Z" fill="#FBFDFA"/>
<path d="M580.871 4.10425L571.6 6.14591V6.64591C572.663 6.64591 574.059 6.81258 574.059 8.62508V19.9376H566.434V21.4167H574.059V43.3751C574.059 56.3334 582.85 60.0209 591.204 60.0209C602.684 60.0209 608.434 55.1042 610.309 51.3334L603.35 48.2292C600.809 57.7292 594.329 59.3751 591.204 59.3751C586.934 59.3751 580.871 59.1251 580.871 43.3751V21.4167H599.413V19.9376H580.871V4.10425Z" fill="#FBFDFA"/>
<path d="M684.116 20.5001C684.845 20.5001 685.658 20.5834 686.408 20.7501C692.887 22.3959 696.324 31.9792 693.449 43.2292C690.658 54.1251 682.303 60.7709 675.908 59.0417C669.428 57.2501 665.908 47.8126 668.783 36.5001C671.241 26.8126 677.949 20.5001 684.116 20.5001ZM681.074 19.3542C668.449 19.3542 660.574 28.4584 660.574 39.8542C660.574 51.3334 668.449 60.4376 681.074 60.4376C693.699 60.4376 701.658 51.3334 701.658 39.8542C701.658 28.4584 693.616 19.3542 681.074 19.3542ZM651.387 4.10425L642.116 6.14591V6.64591C643.178 6.64591 644.574 6.81258 644.574 8.62508V19.9376H636.949V21.4167H644.574V55.1876C644.574 68.1459 655.074 73.2293 666.553 73.2293C676.491 73.2293 682.72 69.5417 685.428 66.1876C683.283 65.1876 681.074 64.2084 678.949 63.2292C675.991 71.1043 669.512 72.5834 666.553 72.5834C660.908 72.5834 651.387 70.9376 651.387 55.1876V21.4167H664.678V19.9376H651.387V4.10425Z" fill="#FBFDFA"/>
<path d="M733.223 2.375V2.70833C736.827 2.70833 738.556 5.16667 738.556 6.8125V54.5417C738.556 56.1667 736.827 58.6458 733.223 58.6458V58.9583H778.889L779.223 46.25H778.327C778.327 49.8542 777.327 58.0625 769.306 58.0625H745.264V6.8125C745.264 5.16667 746.993 2.70833 750.598 2.70833V2.375H733.223Z" fill="#FBFDFA"/>
<path d="M796.685 19.3543L787.331 21.3335V21.896C788.477 21.896 789.872 22.0627 789.872 23.7918V54.8543C789.872 56.5002 788.247 58.9585 784.539 58.9585V59.2918H802.018V58.9585C798.331 58.9585 796.685 56.5002 796.685 54.8543V19.3543ZM793.247 0.333496L788.247 6.00016L793.247 11.7293L798.331 6.00016L793.247 0.333496Z" fill="#FBFDFA"/>
<path d="M830.458 0C822.999 0 813.333 3.20833 813.333 16.7292V19.9375H804.791V21.4167H813.333V54.5417C813.333 56.1667 811.687 58.6458 807.999 58.6458V58.9583H825.458V58.6458C821.77 58.6458 820.124 56.1667 820.124 54.5417V21.4167H837.854V19.9375H820.124V16.7292C820.124 0.916667 826.208 0.666667 830.458 0.666667C833.583 0.666667 840.062 2.29167 842.604 11.8958L849.562 8.6875C847.687 4.91667 841.937 0 830.458 0Z" fill="#FBFDFA"/>
<path d="M864.402 20.1874C865.152 20.1874 865.881 20.2499 866.631 20.4166C870.798 21.4999 872.943 27.5624 872.693 35.4374L848.256 40.5208C848.423 39.1249 848.673 37.6458 849.068 36.1666C851.548 26.4999 858.173 20.1874 864.402 20.1874ZM861.381 19.0208C848.756 19.0208 840.881 28.1249 840.881 39.5208C840.881 50.9999 848.756 60.0208 861.381 60.0208C870.235 60.0208 876.048 56.8333 879.423 51.3333L873.11 48.1458C870.568 55.2708 864.089 60.8541 856.131 58.7083C850.798 57.2499 847.527 50.6041 848.089 41.9999L876.631 36.0833L880.735 35.3541C878.839 25.2708 873.506 19.0208 861.381 19.0208Z" fill="#FBFDFA"/>
</svg>
